<?xml version="1.0" encoding="utf-8"?>
<!-- Generator: Adobe Illustrator 27.5.0, SVG Export Plug-In . SVG Version: 6.00 Build 0)  -->
<svg version="1.1" id="图层_1" xmlns="http://www.w3.org/2000/svg" xmlns:xlink="http://www.w3.org/1999/xlink" x="0px" y="0px"
	 viewBox="0 0 1080 1080" style="enable-background:new 0 0 1080 1080;" xml:space="preserve">
<style type="text/css">
	.st0{fill:#00BFFF;}
</style>
<path class="st0" d="M1060.4,587.8c-21.8-16.4-66.5-44.8-66.5-44.8C828.1,438.4,844.4,441.6,830.2,398
	c-14.2-44.8-139.7-88.3-180-101.5c-40.3-13.1-32.7-29.4-32.7-29.4C635,182.1,574,44.6,566.2,33.7c-7.6-12-26.1-31.6-18.5,0
	c7.6,31.6-21.8,122.2-61,153.8s-76.4,122.2-76.4,122.2s-30.6,12-171.3,163.7c-9.8,10.9-19.7,20.7-29.4,30.6l0,0
	c-31.6,31.6,3.3,53.4,27.3,71.9c23,18.5,120,104.7,167,146.2c47,41.5,60,65.5,81.8,41.5c30.6-40.3,71.9-51.3,115.6-55.7
	c74.2-8.7,184.3,54.6,243.2,77.4c61,23,93.8-41.5,155.9-92.7C1062.5,639.1,1082.2,604.2,1060.4,587.8 M750.6,482
	c-25.1-6.6-58.9-24-81.8-52.4c0,0,86.2-2.2,130.9,19.7C800.8,449.3,775.7,488.6,750.6,482 M390.6,762.4
	C333.9,713.3,220.5,614,195.3,590c-26.1-23-41.5-33.9-58.9-18.5C88.4,615.1,44.9,651.1,11,679.4l382.9,383.9
	c27.3-52.4,43.6-106.9,48-160.4c2.2-18.5,4.3-33.9,6.6-48c0-3.3,1.1-5.5,2.2-9.8c1.1-2.2,1.1-4.3,2.2-5.5
	C457.2,815.8,444,808.2,390.6,762.4z M510.6,800.6c-23-4.3-24,17.5-26.1,50.1c-2.2,32.7-12,77.4,0,89.4c12,12,43.6,23,64.3,10.9
	C569.5,939.1,544.4,807.1,510.6,800.6z"/>
</svg>
