<?xml version="1.0" encoding="utf-8"?>
<!-- Generator: Adobe Illustrator 25.4.1, SVG Export Plug-In . SVG Version: 6.00 Build 0)  -->
<svg version="1.1" id="图层_1" xmlns="http://www.w3.org/2000/svg" xmlns:xlink="http://www.w3.org/1999/xlink" x="0px" y="0px"
	 viewBox="0 0 416 96" style="enable-background:new 0 0 416 96;" xml:space="preserve">
<style type="text/css">
	.st0{fill:#74C0FC;}
	.st1{fill:#FFFFFF;}
</style>
<g>
	<g>
		<path class="st0" d="M96.2,52.4c-2-1.5-6.1-4.1-6.1-4.1C74.9,38.7,76.4,39,75.1,35c-1.3-4.1-12.8-8.1-16.5-9.3
			c-3.7-1.2-3-2.7-3-2.7c1.6-7.8-4-20.4-4.7-21.4c-0.7-1.1-2.4-2.9-1.7,0c0.7,2.9-2,11.2-5.6,14.1c-3.6,2.9-7,11.2-7,11.2
			s-2.8,1.1-15.7,15c-0.9,1-1.8,1.9-2.7,2.8l0,0c-2.9,2.9,0.3,4.9,2.5,6.6C22.8,53,31.7,60.9,36,64.7c4.3,3.8,5.5,6,7.5,3.8
			c2.8-3.7,6.6-4.7,10.6-5.1c6.8-0.8,16.9,5,22.3,7.1C82,72.6,85,66.7,90.7,62C96.4,57.1,98.2,53.9,96.2,52.4 M67.8,42.7
			c-2.3-0.6-5.4-2.2-7.5-4.8c0,0,7.9-0.2,12,1.8C72.4,39.7,70.1,43.3,67.8,42.7"/>
		<path class="st0" d="M34.8,68.4c-5.2-4.5-15.6-13.6-17.9-15.8c-2.4-2.1-3.8-3.1-5.4-1.7C7.1,54.9,3.1,58.2,0,60.8L35.1,96
			c2.5-4.8,4-9.8,4.4-14.7c0.2-1.7,0.4-3.1,0.6-4.4c0-0.3,0.1-0.5,0.2-0.9c0.1-0.2,0.1-0.4,0.2-0.5C40.9,73.3,39.7,72.6,34.8,68.4z"
			/>
		<path class="st0" d="M45.8,71.9c-2.1-0.4-2.2,1.6-2.4,4.6c-0.2,3-1.1,7.1,0,8.2c1.1,1.1,4,2.1,5.9,1
			C51.2,84.6,48.9,72.5,45.8,71.9z"/>
	</g>
	<g>
		<g>
			<path class="st1" d="M263.7,15v8.8l0.3,6.4c-3.3-2.7-6.1-4.4-10.5-4.4c-8.5,0-16.1,7.5-16.1,19.6c0,12.4,6,19.4,15.3,19.4
				c4.4,0,8.3-2.4,11.3-5.3h0.1l0.6,4.4h5.1V15H263.7z M263.7,54.5c-3.1,3.4-6.1,5.1-9.5,5.1c-6.6,0-10.3-5.3-10.3-14.3
				c0-8.5,4.7-14.2,10.7-14.2c3.1,0,5.9,1.1,9,3.9L263.7,54.5L263.7,54.5z"/>
			<path class="st1" d="M273.9,45.4c0-12,8.1-19.6,16.7-19.6c9.4,0,14.8,6.8,14.8,17.4c0,1.4-0.1,2.7-0.3,3.6h-25
				c0.4,7.9,5.3,13,12.3,13c3.6,0,6.6-1.1,9.3-2.9L304,61c-3.3,2.1-7.2,3.8-12.3,3.8C281.8,64.8,273.9,57.6,273.9,45.4z M300,42.4
				c0-7.5-3.4-11.6-9.2-11.6c-5.3,0-9.9,4.2-10.7,11.6H300z"/>
			<path class="st1" d="M307,59.7l3.1-4.1c3.2,2.6,6.6,4.4,11,4.4c4.9,0,7.3-2.6,7.3-5.8c0-3.8-4.4-5.5-8.5-7
				c-5.2-1.9-11.1-4.4-11.1-10.7c0-5.9,4.7-10.5,12.8-10.5c4.6,0,8.6,1.9,11.6,4.2l-3,4c-2.6-1.9-5.2-3.3-8.5-3.3
				c-4.6,0-6.8,2.5-6.8,5.3c0,3.6,4,4.9,8.2,6.4c5.4,2.1,11.3,4.2,11.3,11.3c0,6-4.8,11-13.5,11C315.6,64.8,310.6,62.6,307,59.7z"/>
			<path class="st1" d="M338.5,26.8h6.2v37.1h-6.2V26.8z"/>
			<circle class="st1" cx="341.7" cy="19" r="4"/>
			<path class="st1" d="M348.6,71c0-3.1,2.1-6.2,5.5-8.4v-0.3c-2-1.2-3.4-3.1-3.4-6.1c0-3.1,2.3-5.5,4.2-6.9V49
				c-2.5-2-4.9-5.5-4.9-10c0-8.1,6.4-13.3,13.9-13.3c2.1,0,3.9,0.5,5.2,1H382v4.8h-7.6c1.8,1.7,3,4.4,3,7.7c0,7.9-6,12.9-13.5,12.9
				c-1.8,0-3.9-0.5-5.5-1.3c-1.4,1.2-2.4,2.4-2.4,4.4c0,2.4,1.5,4,6.5,4h7.2c8.6,0,12.9,2.7,12.9,8.8c0,6.9-7.2,12.9-18.7,12.9
				C354.9,81,348.6,77.4,348.6,71z M376.7,69.1c0-3.4-2.7-4.6-7.6-4.6h-6.4c-1.4,0-3.1-0.2-4.8-0.6c-2.7,1.9-3.8,4.1-3.8,6.3
				c0,4,4,6.6,10.8,6.6C372,76.8,376.7,73,376.7,69.1z M371.8,39.1c0-5.4-3.5-8.7-7.9-8.7s-7.9,3.2-7.9,8.7c0,5.4,3.6,8.8,7.9,8.8
				C368.2,47.9,371.8,44.5,371.8,39.1z"/>
			<path class="st1" d="M386.5,26.8h5.1l0.5,5.3h0.2c3.6-3.5,7.4-6.3,12.4-6.3c7.8,0,11.3,5.1,11.3,14.6v23.5h-6.2V41.2
				c0-7-2.1-9.9-7-9.9c-3.8,0-6.4,1.9-10.2,5.7v26.9h-6.2V26.8H386.5z"/>
		</g>
		<g>
			<path class="st0" d="M224.1,25.9L214.9,52c-4.5,12.7-7.6,17.5-11.9,21.8c-1.7,1.8-4.1,3.2-6.5,4.4c3.5-0.7,9.9-3,13.2-6.5
				c4-4.1,6.9-8.6,11.2-20.7l8.9-25.2h-5.7V25.9z"/>
			<path class="st0" d="M232.2,25.9l-9.1,25.9c-4.5,12.6-7.6,17.3-11.7,21.5c-1.6,1.6-3.6,3-5.8,4c3.4-1.1,7.5-3,9.9-5.6
				c4-4.1,6.9-8.6,11.2-20.7l8.9-25.2h-3.4V25.9z"/>
			<path class="st1" d="M194.1,25.9l5.7,18.8c0.6,2.2,1.4,5.1,1.9,7.1h0.2c0.5-2.1,1.1-4.9,1.7-7.1l4.7-18.8H221l-8.8,25.2
				c-4.3,12.1-7.2,16.6-11.2,20.7c-3.7,3.9-11.4,6.3-14.3,6.6l-1.9-7.1c1.5-0.3,3.3-1,5.2-2c1.8-1,3.8-2.9,4.9-4.8
				c0.4-0.6,0.7-1.2,0.7-1.7c0-0.4-0.1-1-0.5-2l-14-35L194.1,25.9L194.1,25.9z"/>
			<path class="st1" d="M184.6,42.1l-6.5-16.2h-3.5c-3.4,0-6.9-0.9-11-0.9c-9.4,0-17.3,7.8-17.3,20.1c0,10.9,6.7,18.6,16.2,18.6
				c4.4,0,8.1-1.8,10.3-4.9h0.2v2.5c0,7.1-5,9.4-9.9,10.1c-6.7,0.9-11.3-0.8-11.3-0.8l-2.2,7c3.4,1.9,8.7,2.9,13.7,2.9
				c5.6,0,11.3-1.1,15.5-4.7c4.3-3.8,5.8-9.8,5.8-17.2V42.1z M172.7,47.1c0,1-0.1,2.2-0.3,3.1c-0.8,2.8-3.2,4.8-6.3,4.8
				c-4.9,0-7.8-4.5-7.8-10.2c0-6.9,3.5-10.9,7.8-10.9c5,0,5.5,0.4,6.4,5.3c0.1,0.7,0.2,1.4,0.2,2.2L172.7,47.1L172.7,47.1z"/>
			<path class="st1" d="M146.2,57.2c-0.1-0.3-0.3-0.5-0.4-0.8c-0.2-0.5-0.4-1.1-0.6-1.6c-1.6,0.6-3.5,0.9-5.9,0.9
				c-5.8,0-10.5-3.7-10.5-10.7c0-6.3,4-10.7,10.3-10.7c2.8,0,4.8,0.5,6.2,1c0.1-0.3,0.2-0.5,0.3-0.8c1-2.7,2.4-5,4.1-7.1
				c-0.9-0.4-1.9-0.7-3.1-1.1c-0.5-0.1-1-0.3-1.5-0.4l0,0c-0.5-0.1-1.1-0.2-1.7-0.3c0,0,0,0-0.1,0l0,0c-1.6-0.3-3.3-0.4-4.9-0.4
				c-14.2,0-21.9,9.1-21.9,20.3c0,12,7.9,19.6,20.2,19.6c4.5,0,8.5-0.8,10.6-1.8c0.5-0.2,1.2-0.6,1.8-1c-1-1.2-2-2.6-2.7-4.1
				C146.5,57.8,146.4,57.5,146.2,57.2z"/>
		</g>
	</g>
</g>
</svg>
