<?xml version="1.0" standalone="no"?><!DOCTYPE svg PUBLIC "-//W3C//DTD SVG 1.1//EN" "http://www.w3.org/Graphics/SVG/1.1/DTD/svg11.dtd"><svg  version="1.1" xmlns="http://www.w3.org/2000/svg" width="512px" height="512px" viewBox="0 0 1024 1024">
<path d="M1003.9,557.2c-20.6-15.5-62.9-42.3-62.9-42.3C784.3,416,799.7,419,786.3,377.8c-13.4-42.3-132-83.5-170.1-95.9
	c-38.1-12.4-30.9-27.8-30.9-27.8c16.5-80.4-41.2-210.3-48.5-220.6c-7.2-11.3-24.7-29.9-17.5,0s-20.6,115.5-57.7,145.4
	s-72.2,115.5-72.2,115.5s-28.9,11.3-161.9,154.7c-9.3,10.3-18.6,19.6-27.8,28.9l0,0c-29.9,29.9,3.1,50.5,25.8,68
	c21.7,17.5,113.4,99,157.8,138.2s56.7,61.9,77.3,39.2c28.9-38.1,68-48.5,109.3-52.6c70.1-8.2,174.2,51.6,229.9,73.2
	c57.7,21.7,88.7-39.2,147.4-87.6C1005.9,605.7,1024.5,572.7,1003.9,557.2 M711.1,457.2c-23.7-6.2-55.7-22.7-77.3-49.5
	c0,0,81.5-2.1,123.7,18.6C758.5,426.3,734.8,463.4,711.1,457.2" fill="#183153" />
<path d="M370.8,722.2C317.2,675.8,210,582,186.2,559.3c-24.7-21.7-39.2-32-55.7-17.5C85.2,583,44,617,12,643.8
	l361.9,362.9c25.8-49.5,41.2-101,45.4-151.6c2.1-17.5,4.1-32,6.2-45.4c0-3.1,1-5.2,2.1-9.3c1-2.1,1-4.1,2.1-5.2
	C433.7,772.7,421.3,765.5,370.8,722.2z" fill="#183153" />
<path d="M484.2,758.3c-21.7-4.1-22.7,16.5-24.7,47.4c-2.1,30.9-11.3,73.2,0,84.5c11.3,11.3,41.2,21.7,60.8,10.3
	C539.9,889.2,516.2,764.5,484.2,758.3z" fill="#183153" />
</svg>